<?xml version="1.0" encoding="UTF-8"?>
<svg width="24px" height="24px" viewBox="0 0 24 24" version="1.1" xmlns="http://www.w3.org/2000/svg" xmlns:xlink="http://www.w3.org/1999/xlink">
    <title>071A6431-FD9D-4280-8AD2-A7E857B64416</title>
    <g id="Icons" stroke="none" stroke-width="1" fill="none" fill-rule="evenodd">
        <g id="icon/24-pixels/social/facebook" fill="#2167AE" fill-rule="nonzero">
            <path d="M15.9331,9.3906 C15.8381,9.2856 15.7041,9.2256 15.5621,9.2256 L13.4301,9.2256 L13.4301,7.9616 C13.4301,7.6666 13.5361,7.6426 13.6621,7.6426 L15.5181,7.6426 C15.7941,7.6426 16.0181,7.4186 16.0181,7.1426 L16.0181,4.2296 C16.0181,3.9536 15.7951,3.7306 15.5201,3.7296 L12.9611,3.7196 C10.0211,3.7196 8.9771,5.9096 8.9771,7.7836 L8.9771,9.2256 L7.8341,9.2256 C7.5581,9.2256 7.3341,9.4496 7.3341,9.7256 L7.3341,12.7256 C7.3341,13.0016 7.5581,13.2256 7.8341,13.2256 L8.9771,13.2256 L8.9771,21.2196 C8.9771,21.4956 9.2011,21.7196 9.4771,21.7196 L12.9301,21.7196 C13.2061,21.7196 13.4301,21.4956 13.4301,21.2196 L13.4301,13.2256 L15.2591,13.2256 C15.5161,13.2256 15.7311,13.0316 15.7561,12.7756 L16.0591,9.7756 C16.0741,9.6346 16.0281,9.4946 15.9331,9.3906" id="Icon"></path>
        </g>
    </g>
</svg>