<?xml version="1.0" encoding="UTF-8"?>
<svg width="24px" height="24px" viewBox="0 0 24 24" version="1.1" xmlns="http://www.w3.org/2000/svg" xmlns:xlink="http://www.w3.org/1999/xlink">
    <title>E3139BDD-C285-4E7A-83AB-6442ADF807B2</title>
    <g id="Icons" stroke="none" stroke-width="1" fill="none" fill-rule="evenodd">
        <g id="icon/24-pixels/social/youtube--" fill="#2167AE" fill-rule="nonzero">
            <path d="M15.216,12.1364738 L10.323,15.4808013 C10.239,15.5380566 10.143,15.5666843 10.045,15.5666843 C9.964,15.5666843 9.883,15.5472584 9.81,15.5073841 C9.647,15.4184338 9.545,15.2446228 9.545,15.0554756 L9.545,8.36579824 C9.545,8.17665101 9.647,8.00284005 9.81,7.91388973 C9.971,7.82493941 10.169,7.83516359 10.323,7.94047258 L15.216,11.2858225 C15.355,11.3809073 15.438,11.5404044 15.438,11.7111481 C15.438,11.8818919 15.355,12.041389 15.216,12.1364738 M17.534,5 L5.966,5 C4.33,5 3,6.42524992 3,8.17767343 L3,15.323349 C3,17.0747501 4.33,18.5 5.966,18.5 L17.534,18.5 C19.17,18.5 20.5,17.0747501 20.5,15.3223266 L20.5,8.17767343 C20.5,6.42524992 19.17,5 17.534,5" id="Icon"></path>
        </g>
    </g>
</svg>