<?xml version="1.0" encoding="UTF-8"?>
<svg width="24px" height="24px" viewBox="0 0 24 24" version="1.1" xmlns="http://www.w3.org/2000/svg" xmlns:xlink="http://www.w3.org/1999/xlink">
    <title>4B895AE2-B4DC-4D4C-89BA-DDB808A88C4E</title>
    <g id="Icons" stroke="none" stroke-width="1" fill="none" fill-rule="evenodd">
        <g id="icon/24-pixels/social/twitter--" fill="#2167AE" fill-rule="nonzero">
            <path d="M20.391782,6.77189615 C20.301782,6.66463117 20.171782,6.605939 20.038782,6.60492707 C19.976782,6.60492707 19.912782,6.61909414 19.852782,6.64540442 C19.771782,6.68082211 19.690782,6.71522786 19.607782,6.74862168 C19.781782,6.47236374 19.919782,6.17384325 20.020782,5.85913183 C20.079782,5.67495987 20.019782,5.47358504 19.870782,5.35316491 C19.786782,5.28435341 19.684782,5.24994766 19.581782,5.24994766 C19.501782,5.24994766 19.420782,5.2722102 19.348782,5.31471142 C18.790782,5.64662572 18.193782,5.88948985 17.567782,6.03723219 C16.856782,5.37542745 15.912782,5 14.938782,5 C12.809782,5 11.077782,6.74558587 11.077782,8.89088562 C11.077782,8.98094773 11.079782,9.06999791 11.085782,9.15904808 C8.70278202,8.88987368 6.49778202,7.68364854 4.97178202,5.79639193 C4.88378202,5.68811501 4.75178202,5.62537511 4.61578202,5.62537511 C4.60278202,5.62537511 4.59078202,5.62537511 4.57878202,5.62638705 C4.42878202,5.63954219 4.29278202,5.72454463 4.21678202,5.85710796 C3.87478202,6.45010119 3.69478202,7.12708493 3.69478202,7.81317608 C3.69478202,8.51748203 3.88078202,9.19446577 4.22178202,9.78239933 C4.19078202,9.77531579 4.15878202,9.77126806 4.12478202,9.77126806 C4.04378202,9.77126806 3.96378202,9.79251867 3.89178202,9.83603182 C3.75078202,9.92002233 3.66478202,10.0728243 3.66478202,10.2377696 C3.66478202,11.4632214 4.21278202,12.5692651 5.08778202,13.2938098 C5.04578202,13.3191081 5.00678202,13.35149 4.97378202,13.3889315 C4.86678202,13.5123875 4.83078202,13.6834043 4.88078202,13.840254 C5.25578202,15.0221928 6.15878202,15.9278735 7.27878202,16.3235397 C6.36078202,16.8183753 5.33878202,17.0764185 4.27178202,17.0764185 C4.01778202,17.0764185 3.76278202,17.0612394 3.51278202,17.0318934 C3.49578202,17.0298695 3.47778202,17.0288576 3.45978202,17.0288576 C3.26678202,17.0288576 3.09178202,17.1513016 3.02678202,17.3374974 C2.95478202,17.54292 3.03178202,17.7706051 3.21178202,17.8869775 C4.84478202,18.9424245 6.73278202,19.5 8.67378202,19.5 C15.019782,19.5 18.811782,14.3067555 18.811782,9.28756368 C18.811782,9.21571638 18.810782,9.14488101 18.809782,9.07303371 C19.437782,8.58325773 19.979782,7.99835997 20.421782,7.33149557 C20.536782,7.15845488 20.523782,6.93076977 20.391782,6.77189615" id="Icon"></path>
        </g>
    </g>
</svg>