<?xml version="1.0" encoding="UTF-8"?>
<svg width="24px" height="24px" viewBox="0 0 24 24" version="1.1" xmlns="http://www.w3.org/2000/svg" xmlns:xlink="http://www.w3.org/1999/xlink">
    <title>4554BC07-F705-424F-BBC3-05FAA9422FDB</title>
    <g id="Icons" stroke="none" stroke-width="1" fill="none" fill-rule="evenodd">
        <g id="icon/24-pixels/social/linkedin--" fill="#2167AE" fill-rule="nonzero">
            <path d="M7.1245,9.0251 L3.6875,9.0251 C3.4195,9.0251 3.2015,9.2431 3.2015,9.5111 L3.2015,19.7671 C3.2015,20.0361 3.4195,20.2531 3.6875,20.2531 L7.1245,20.2531 C7.3935,20.2531 7.6105,20.0361 7.6105,19.7671 L7.6105,9.5111 C7.6105,9.2431 7.3935,9.0251 7.1245,9.0251 M15.5575,8.7831 C14.3525,8.7831 13.5275,9.1711 12.9455,9.6601 L12.9455,9.5091 C12.9455,9.2411 12.7285,9.0231 12.4605,9.0231 L9.0245,9.0231 C8.8925,9.0231 8.7655,9.0781 8.6735,9.1741 C8.5815,9.2701 8.5335,9.4001 8.5405,9.5331 C8.5525,9.8071 8.5575,10.7671 8.5595,11.9941 L8.53948529,19.7611 C8.5385,19.8911 8.5885,20.0151 8.6805,20.1071 C8.7715,20.2001 8.8955,20.2511 9.0245,20.2511 L12.4605,20.2511 C12.7285,20.2511 12.9455,20.0341 12.9455,19.7651 L12.9455,14.0381 C12.9455,13.7311 12.9715,13.5141 13.0225,13.3901 C13.1385,13.1051 13.4975,12.4441 14.3365,12.4441 C14.6805,12.4441 15.5915,12.4441 15.5915,14.2791 L15.5915,19.7671 C15.5915,20.0361 15.8095,20.2531 16.0775,20.2531 L19.5135,20.2531 C19.7815,20.2531 19.9995,20.0361 19.9995,19.7671 L20.0005,13.8831 C20.0005,10.7371 18.2985,8.7831 15.5575,8.7831 M7.8355,6.3261 C7.8355,7.6461 6.8135,8.5951 5.4045,8.5951 C4.0015,8.5951 3.0005,7.6461 3.0005,6.3371 C3.0005,5.0281 4.0215,4.0781 5.4285,4.0781 C6.8165,4.0781 7.8075,5.0031 7.8355,6.3261" id="Icon"></path>
        </g>
    </g>
</svg>