<?xml version="1.0" encoding="UTF-8"?>
<svg width="24px" height="24px" viewBox="0 0 24 24" version="1.1" xmlns="http://www.w3.org/2000/svg" xmlns:xlink="http://www.w3.org/1999/xlink">
    <title>59DDFA3B-5D06-4774-80B4-AE93687458F2</title>
    <g id="Icons" stroke="none" stroke-width="1" fill="none" fill-rule="evenodd">
        <g id="icon/24-pixels/social/instagram--" fill="#2167AE" fill-rule="nonzero">
            <path d="M17.3,7.623 C17.3,7.094 16.87,6.664 16.341,6.664 C15.812,6.664 15.383,7.094 15.383,7.623 C15.383,8.152 15.812,8.581 16.341,8.581 C16.87,8.581 17.3,8.152 17.3,7.623 M16.254,12.09 C16.254,9.741 14.344,7.831 11.996,7.831 C9.648,7.831 7.737,9.741 7.737,12.09 C7.737,14.437 9.648,16.348 11.996,16.348 C14.344,16.348 16.254,14.437 16.254,12.09 M20,7.5 L20,16.5 C20,18.43 18.43,20 16.5,20 L7.5,20 C5.571,20 4,18.43 4,16.5 L4,7.5 C4,5.57 5.571,4 7.5,4 L16.5,4 C18.43,4 20,5.57 20,7.5 M14.754,12.09 C14.754,13.61 13.517,14.848 11.996,14.848 C10.475,14.848 9.237,13.61 9.237,12.09 C9.237,10.568 10.475,9.331 11.996,9.331 C13.517,9.331 14.754,10.568 14.754,12.09" id="Icon"></path>
        </g>
    </g>
</svg>